<svg xmlns="http://www.w3.org/2000/svg" viewBox="0 0 512 512" style="enable-background:new 0 0 512 512" xml:space="preserve">
  <linearGradient id="a" gradientUnits="userSpaceOnRegion" x1="256" y1="512" x2="256" y2="0">
    <stop offset="0" style="stop-color:#ff9a9e"/>
    <stop offset="1" style="stop-color:#fad0c4"/>
  </linearGradient>
  <ellipse style="fill:url(#a)" cx="256" cy="272" rx="200" ry="176"/>
  <ellipse style="fill:#fff;opacity:.2" cx="200" cy="176" rx="40" ry="60"/>
  <circle style="fill:#fff" cx="200" cy="176" rx="24"/>
  <circle cx="208" cy="184" rx="8"/>
  <path style="fill:#333;opacity:.3" d="M360 416c0 17.7-14.3 32-32 32H184c-17.7 0-32-14.3-32-32v48c0 17.7 14.3 32 32 32h144c17.7 0 32-14.3 32-32z"/>
  <ellipse style="fill:#ffa0a3" cx="256" cy="384" rx="80" ry="64"/>
  <ellipse style="fill:#fff;opacity:.2" cx="256" cy="384" rx="64" ry="48"/>
  <circle style="fill:#ffa0a3" cx="128" cy="96" rx="48"/>
  <circle style="fill:#ffa0a3" cx="384" cy="96" rx="48"/>
  <rect x="208" y="160" width="96" height="32" rx="16" style="fill:#fbc02d;stroke:#ff9800;stroke-width:4"/>
  <path style="fill:#ff9800" d="M256 160v32m-24-16h48"/>
  
  <circle cx="90" cy="200" r="30" style="fill:#333;opacity:.1"/>
  <path d="M90 185v30m-15-15h30" style="fill:none;stroke:#007bff;stroke-width:4;stroke-linecap:round"/>
  
  <circle cx="422" cy="200" r="30" style="fill:#333;opacity:.1"/>
  <rect x="402" y="180" width="40" height="40" rx="8" style="fill:none;stroke:#28a745;stroke-width:4"/>
  
  <circle cx="256" cy="60" r="30" style="fill:#333;opacity:.1"/>
  <path d="M246 50h20l10 30h-40l10-30" style="fill:none;stroke:#ffc107;stroke-width:4;stroke-linecap:round"/>
  
  <circle cx="160" cy="450" r="30" style="fill:#333;opacity:.1"/>
  <path d="M145 440l15 15 15-15" style="fill:none;stroke:#dc3545;stroke-width:4;stroke-linecap:round"/>
</svg>
