<svg width="200" height="200" viewBox="0 0 200 200" xmlns="http://www.w3.org/2000/svg">
  <circle cx="100" cy="100" r="95" fill="#f8f9fa" stroke="#e9ecef" stroke-width="1"/>
  
  <ellipse cx="100" cy="110" rx="45" ry="35" fill="#FFD700" stroke="#B8860B" stroke-width="2"/>
  <path d="M70 85 L60 70 L80 75 Z" fill="#FFD700" stroke="#B8860B" stroke-width="1"/>
  <path d="M130 85 L140 70 L120 75 Z" fill="#FFD700" stroke="#B8860B" stroke-width="1"/>
  <rect x="85" y="85" width="30" height="4" rx="2" fill="#B8860B" />
  <circle cx="115" cy="102" r="2" fill="#333" />
  
  <g transform="translate(45,45) scale(0.6)">
    <path d="M5 5 L15 5 L25 25 L50 25 L55 10 L20 10" fill="none" stroke="#007bff" stroke-width="3"/>
    <circle cx="28" cy="30" r="3" fill="#007bff"/>
    <circle cx="48" cy="30" r="3" fill="#007bff"/>
  </g>
  
  <g transform="translate(125,45) scale(0.7)">
    <path d="M10 25 L25 10 M20 5 L30 15" stroke="#28a745" stroke-width="4" stroke-linecap="round"/>
    <circle cx="10" cy="25" r="4" fill="#28a745"/>
  </g>
  
  <g transform="translate(45,135) scale(0.7)">
    <path d="M5 10 L15 5 L25 10 L25 25 L5 25 Z" fill="#6f42c1" stroke="#6f42c1" stroke-width="1"/>
  </g>
  
  <g transform="translate(125,135) scale(0.6)">
    <rect x="5" y="5" width="30" height="15" rx="5" fill="#dc3545"/>
    <path d="M0 25 Q15 20 35 25" fill="none" stroke="#333" stroke-width="2"/>
  </g>
</svg>
